<svg viewBox="0 0 1024 1024" width="200" height="200"><path d="M834.923 757.132c0 82.81-1.442 84.252-77.04 84.252H264.93c-85.61 0-85.44 2.206-85.44-75.089l-.085-491.512c0-78.058 0-76.7 85.61-76.7h286.694v-45.054H262.553c-106.82 0-128.711 14.254-128.711 121.584v490.24c0 121.414 21.89 121.499 128.796 121.499h497.706c106.906 0 120.481-22.484 120.481-129.9V490.208h-45.817l-.085 266.925z"/><path d="M876.413 209.282l-65.501-65.501c-21.381-21.381-40.81-21.381-62.192 0L371.156 520.497c-.594.593-1.103 1.103-1.527 1.696a20.593 20.593 0 00-7.297 11.115l-16.63 105.21c-3.224 11.538 3.564 23.417 15.103 26.556 2.46.679 4.92.933 7.381.764 1.782.17 3.564.084 5.43-.255l117.766-13.83c5.346-.933 9.843-3.818 13.067-7.72.594-.51 1.272-1.019 1.781-1.613l370.183-370.946c21.296-21.381 21.296-40.811 0-62.192zm-407.6 406.412l-70.506 11.369s-7.976 1.867-11.285-1.697c-2.46-2.8.679-9.757.679-9.757l17.563-62.023 63.55 62.108zm32.327-32.242l-64.653-63.04 264.465-262.259 63.804 62.192L501.14 583.452zm337.092-336.499l-41.32 41.236-63.634-62.108 42.168-41.829c4.497-4.497 11.794-4.497 16.29 0l46.496 46.496a11.42 11.42 0 010 16.205z"/></svg>