<svg t="1629125701684" class="icon" viewBox="0 0 1024 1024" version="1.1" xmlns="http://www.w3.org/2000/svg" p-id="8548" width="200" height="200"><path d="M854.45 560.26l-95.38-35.94c5.98-24.52 9.02-49.72 9.02-75.25 0-84.57-32.93-164.07-92.73-223.87-59.8-59.8-139.3-92.73-223.87-92.73S287.42 165.4 227.62 225.2c-59.8 59.8-92.73 139.3-92.73 223.87s32.93 164.07 92.73 223.87c59.8 59.8 139.3 92.73 223.87 92.73 23.38 0 46.53-2.56 69.12-7.59l37.23 98.8c8.04 21.34 27.7 34.66 49.7 34.66 3.12 0 6.29-0.27 9.48-0.82 25.66-4.44 43.9-25.73 44.36-51.77l3.02-172.13 172.13-3.02c26.04-0.46 47.32-18.7 51.77-44.36 4.44-25.66-9.48-50-33.85-59.18zM451.49 705.67c-141.49 0-256.6-115.11-256.6-256.6s115.11-256.6 256.6-256.6 256.6 115.11 256.6 256.6c0 18.25-1.91 36.28-5.67 53.9l-213.37-80.41c-19.92-7.5-41.64-2.82-56.69 12.23-15.05 15.05-19.74 36.77-12.23 56.69l79.05 209.77a258.876 258.876 0 0 1-47.69 4.42z m205.57-98.73c-28.95 0.51-52.03 23.59-52.54 52.54l-2.54 144.38-120.63-320.09L801.44 604.4l-144.38 2.54z" p-id="8549"></path></svg>
