<svg viewBox="0 0 1024 1024" width="200" height="200"><path d="M238.933 443.733H256a119.467 119.467 0 010 238.934h-17.067V819.2h136.534v-19.183a117.35 117.35 0 11234.7 0V819.2H716.8V614.502l68.267-.102a68.3 68.3 0 000-136.533H716.8V341.333H580.267v-68.266a68.267 68.267 0 10-136.534 0v68.266h-204.8v102.4zM512 136.533a136.533 136.533 0 01136.533 136.534h136.534V409.6a136.533 136.533 0 01.034 273.1l-.034 204.767H541.9v-87.45a49.084 49.084 0 00-98.168 0v87.45H170.667V614.4H256a51.2 51.2 0 000-102.4h-85.333V273.067h204.8A136.533 136.533 0 01512 136.533z"/></svg>