<svg viewBox="0 0 1024 1024" width="200" height="200"><path d="M779.636 93.09a128 128 0 01127.907 122.858l.093 5.143V768A128 128 0 01784.78 895.907l-5.144.093-101.888.023a92.928 92.928 0 01-72.657 34.886H209.455a93.09 93.09 0 01-93.091-93.09V302.544a93.09 93.09 0 0193.09-93.09h105.24a128 128 0 01122.345-116.27l5.143-.093h337.454zM605.091 279.274H209.455a23.273 23.273 0 00-23.11 20.55l-.163 2.722v535.273a23.273 23.273 0 0020.55 23.11l2.723.163H605.09a23.273 23.273 0 0023.11-20.55l.163-2.723V302.545a23.273 23.273 0 00-20.55-23.11l-2.723-.162zM779.636 162.91H442.182a58.182 58.182 0 00-57.018 46.546H605.09a93.09 93.09 0 0193.09 93.09v523.637h81.455a58.182 58.182 0 0058.066-54.365l.116-3.817V221.09a58.182 58.182 0 00-54.365-58.065l-3.817-.116zm-232.727 512a34.91 34.91 0 010 69.818H267.636a34.91 34.91 0 010-69.818H546.91zm0-139.636a34.91 34.91 0 010 69.818H267.636a34.91 34.91 0 010-69.818H546.91zm0-139.637a34.91 34.91 0 010 69.819H267.636a34.91 34.91 0 010-69.819H546.91z"/></svg>