<svg t="1629125592548" class="icon" viewBox="0 0 1024 1024" version="1.1" xmlns="http://www.w3.org/2000/svg" p-id="5727" width="200" height="200"><path d="M733.664 287.968L896 288a32 32 0 0 1 32 32v467.68a32 32 0 0 1-9.152 22.4L812.672 918.4a32 32 0 0 1-22.848 9.6H128a32 32 0 0 1-32-32V320a32 32 0 0 1 32-32l162.272-0.064c-5.92 10.24-11.168 20.96-15.648 32L128 320v576h661.824L896 787.68V320l-146.624-0.032a254.72 254.72 0 0 0-10.688-23.008L733.664 288z m114.432 480.32a16 16 0 0 1 2.88 31.744l-2.88 0.256h-47.936v47.84a16 16 0 0 1-13.12 15.744l-2.88 0.256a16 16 0 0 1-15.744-13.12l-0.256-2.88V784.32a16 16 0 0 1 13.12-15.744l2.88-0.256h63.936z" p-id="5728"></path><path d="M544 96a32 32 0 0 1 32 32v40.064c23.488 6.08 45.664 15.36 66.048 27.392l28.352-28.352a32 32 0 0 1 45.248 0l45.248 45.248a32 32 0 0 1 0 45.248l-28.352 28.352c12.032 20.384 21.344 42.56 27.392 66.048H800a32 32 0 0 1 32 32v64a32 32 0 0 1-32 32h-40.064a254.464 254.464 0 0 1-27.392 66.048l28.352 28.352a32 32 0 0 1 0 45.248l-45.248 45.248a32 32 0 0 1-45.248 0l-28.352-28.352a254.464 254.464 0 0 1-66.048 27.392V704a32 32 0 0 1-32 32h-64a32 32 0 0 1-32-32v-40.064a254.464 254.464 0 0 1-66.048-27.392l-28.352 28.352a32 32 0 0 1-45.248 0l-45.248-45.248a32 32 0 0 1 0-45.248l28.352-28.352a254.464 254.464 0 0 1-27.392-66.08L224 480a32 32 0 0 1-32-32v-64a32 32 0 0 1 32-32h40.064c6.08-23.488 15.36-45.664 27.392-66.048l-28.352-28.352a32 32 0 0 1 0-45.248l45.248-45.248a32 32 0 0 1 45.248 0l28.352 28.352a254.464 254.464 0 0 1 66.08-27.392L448 128a32 32 0 0 1 32-32h64z m0 32h-64l0.032 64.864-24.032 6.176c-16.96 4.384-33.28 10.688-48.64 18.848l-9.12 5.12-21.376 12.608-45.888-45.888L285.76 234.976l45.888 45.888-12.608 21.376a222.592 222.592 0 0 0-21.12 47.648l-2.816 10.08-6.208 24L224 384v64l64.864-0.032 6.176 24.032c4.384 16.96 10.688 33.28 18.848 48.64l5.12 9.12 12.608 21.376-45.888 45.888 45.248 45.248 45.888-45.888 21.376 12.608c15.008 8.896 30.976 15.968 47.68 21.12l10.08 2.848 24.032 6.176L480 704h64v-64.864l24.032-6.208a222.272 222.272 0 0 0 48.64-18.816l9.088-5.12 21.376-12.608 45.888 45.888 45.248-45.248-45.888-45.888 12.608-21.376c8.896-15.008 15.968-30.976 21.12-47.68l2.848-10.08 6.176-24.032L800 448v-64h-64.864l-6.208-24.032a222.272 222.272 0 0 0-18.816-48.64l-5.12-9.088-12.608-21.376 45.888-45.888-45.248-45.248-45.888 45.888-21.376-12.608a222.592 222.592 0 0 0-47.648-21.12l-10.08-2.816-24-6.208L544 128z m-32 128a160 160 0 1 1 0 320 160 160 0 0 1 0-320z m0 32a128 128 0 1 0 0 256 128 128 0 0 0 0-256z" p-id="5729"></path><path d="M720 768a16 16 0 0 1 2.88 31.744L720 800h-416a16 16 0 0 1-2.88-31.744L304 768h416z" p-id="5730"></path></svg>
