<svg viewBox="0 0 1024 1024" width="200" height="200"><path d="M733.664 287.968L896 288a32 32 0 0132 32v467.68a32 32 0 01-9.152 22.4L812.672 918.4a32 32 0 01-22.848 9.6H128a32 32 0 01-32-32V320a32 32 0 0132-32l162.272-.064a257.414 257.414 0 00-15.648 32L128 320v576h661.824L896 787.68V320l-146.624-.032a254.72 254.72 0 00-10.688-23.008l-5.024-8.96zm114.432 480.32a16 16 0 012.88 31.744l-2.88.256H800.16v47.84a16 16 0 01-13.12 15.744l-2.88.256a16 16 0 01-15.744-13.12l-.256-2.88V784.32a16 16 0 0113.12-15.744l2.88-.256h63.936z"/><path d="M544 96a32 32 0 0132 32v40.064a256.098 256.098 0 0166.048 27.392l28.352-28.352a32 32 0 0145.248 0l45.248 45.248a32 32 0 010 45.248l-28.352 28.352c12.032 20.384 21.344 42.56 27.392 66.048H800a32 32 0 0132 32v64a32 32 0 01-32 32h-40.064a254.464 254.464 0 01-27.392 66.048l28.352 28.352a32 32 0 010 45.248l-45.248 45.248a32 32 0 01-45.248 0l-28.352-28.352A254.464 254.464 0 01576 663.936V704a32 32 0 01-32 32h-64a32 32 0 01-32-32v-40.064a254.464 254.464 0 01-66.048-27.392L353.6 664.896a32 32 0 01-45.248 0l-45.248-45.248a32 32 0 010-45.248l28.352-28.352a254.464 254.464 0 01-27.392-66.08L224 480a32 32 0 01-32-32v-64a32 32 0 0132-32h40.064a256.098 256.098 0 0127.392-66.048L263.104 257.6a32 32 0 010-45.248l45.248-45.248a32 32 0 0145.248 0l28.352 28.352a254.464 254.464 0 0166.08-27.392L448 128a32 32 0 0132-32h64zm0 32h-64l.032 64.864L456 199.04c-16.96 4.384-33.28 10.688-48.64 18.848l-9.12 5.12-21.376 12.608-45.888-45.888-45.216 45.248 45.888 45.888-12.608 21.376a222.592 222.592 0 00-21.12 47.648l-2.816 10.08-6.208 24L224 384v64l64.864-.032L295.04 472c4.384 16.96 10.688 33.28 18.848 48.64l5.12 9.12 12.608 21.376-45.888 45.888 45.248 45.248 45.888-45.888 21.376 12.608a221.32 221.32 0 0047.68 21.12L456 632.96l24.032 6.176L480 704h64v-64.864l24.032-6.208a222.272 222.272 0 0048.64-18.816l9.088-5.12 21.376-12.608 45.888 45.888 45.248-45.248-45.888-45.888 12.608-21.376a221.32 221.32 0 0021.12-47.68L728.96 472l6.176-24.032L800 448v-64h-64.864l-6.208-24.032a222.272 222.272 0 00-18.816-48.64l-5.12-9.088-12.608-21.376 45.888-45.888-45.248-45.248-45.888 45.888-21.376-12.608a222.592 222.592 0 00-47.648-21.12l-10.08-2.816-24-6.208L544 128zm-32 128a160 160 0 110 320 160 160 0 010-320zm0 32a128 128 0 100 256 128 128 0 000-256zm208 480a16 16 0 012.88 31.744L720 800H304a16 16 0 01-2.88-31.744L304 768h416z"/></svg>