<svg t="1629172299246" class="icon" viewBox="0 0 1024 1024" version="1.1" xmlns="http://www.w3.org/2000/svg" p-id="17227" width="200" height="200"><path d="M814.19377778 299.86133333v468.76444445h-605.29777778v-468.76444445h605.29777778m3.75466667-50.06222222H205.25511111c-25.6 0-46.30755555 20.70755555-46.30755556 46.30755555V772.26666666c0 25.6 20.70755555 46.30755555 46.30755556 46.30755556h612.69333334c25.6 0 46.30755555-20.70755555 46.30755555-46.30755556V296.10666666c0-25.48622222-20.70755555-46.30755555-46.30755555-46.30755555z" p-id="17228"></path><path d="M830.12266667 438.67022222h-637.15555556c-13.88088889 0-25.03111111-11.15022222-25.03111111-25.03111111s11.15022222-25.03111111 25.03111111-25.03111111h637.15555556c13.88088889 0 25.03111111 11.15022222 25.03111111 25.03111111s-11.15022222 25.03111111-25.03111111 25.03111111zM390.37155555 575.20355555h-66.90133333c-13.88088889 0-25.03111111-11.15022222-25.03111111-25.03111111s11.15022222-25.03111111 25.03111111-25.03111111h66.90133333c13.88088889 0 25.03111111 11.15022222 25.03111112 25.03111111s-11.15022222 25.03111111-25.03111112 25.03111111zM544.99555555 575.20355555h-66.90133333c-13.88088889 0-25.03111111-11.15022222-25.03111111-25.03111111s11.15022222-25.03111111 25.03111111-25.03111111H544.99555555c13.88088889 0 25.03111111 11.15022222 25.03111112 25.03111111s-11.15022222 25.03111111-25.03111112 25.03111111zM699.61955555 575.20355555h-66.90133333c-13.88088889 0-25.03111111-11.15022222-25.03111111-25.03111111s11.15022222-25.03111111 25.03111111-25.03111111h66.90133333c13.88088889 0 25.03111111 11.15022222 25.03111112 25.03111111s-11.15022222 25.03111111-25.03111112 25.03111111zM390.37155555 683.29244444h-66.90133333c-13.88088889 0-25.03111111-11.15022222-25.03111111-25.03111111s11.15022222-25.03111111 25.03111111-25.03111111h66.90133333c13.88088889 0 25.03111111 11.15022222 25.03111112 25.03111111s-11.15022222 25.03111111-25.03111112 25.03111111zM544.99555555 683.29244444h-66.90133333c-13.88088889 0-25.03111111-11.15022222-25.03111111-25.03111111s11.15022222-25.03111111 25.03111111-25.03111111H544.99555555c13.88088889 0 25.03111111 11.15022222 25.03111112 25.03111111s-11.15022222 25.03111111-25.03111112 25.03111111zM699.61955555 683.29244444h-66.90133333c-13.88088889 0-25.03111111-11.15022222-25.03111111-25.03111111s11.15022222-25.03111111 25.03111111-25.03111111h66.90133333c13.88088889 0 25.03111111 11.15022222 25.03111112 25.03111111s-11.15022222 25.03111111-25.03111112 25.03111111z" p-id="17229"></path><path d="M387.86844445 343.43822222c-13.88088889 0-25.03111111-11.15022222-25.03111112-25.03111111v-91.02222223c0-13.88088889 11.15022222-25.03111111 25.03111112-25.0311111s25.03111111 11.15022222 25.0311111 25.0311111v91.02222223c0 13.88088889-11.15022222 25.03111111-25.0311111 25.03111111zM635.33511111 343.43822222c-13.88088889 0-25.03111111-11.15022222-25.03111111-25.03111111v-91.02222223c0-13.88088889 11.15022222-25.03111111 25.03111111-25.0311111s25.03111111 11.15022222 25.03111111 25.0311111v91.02222223c0 13.88088889-11.264 25.03111111-25.03111111 25.03111111z" p-id="17230"></path></svg>
