<svg viewBox="0 0 1024 1024" width="200" height="200"><path d="M814.194 299.861v468.765H208.896V299.86h605.298m3.754-50.062H205.255c-25.6 0-46.307 20.708-46.307 46.308v476.16c0 25.6 20.707 46.307 46.307 46.307h612.693c25.6 0 46.308-20.707 46.308-46.307v-476.16c0-25.487-20.708-46.308-46.308-46.308z"/><path d="M830.123 438.67H192.967c-13.88 0-25.031-11.15-25.031-25.03s11.15-25.032 25.031-25.032h637.156c13.88 0 25.03 11.15 25.03 25.031s-11.15 25.031-25.03 25.031zM390.372 575.204H323.47c-13.88 0-25.03-11.15-25.03-25.032s11.15-25.03 25.03-25.03h66.902c13.88 0 25.03 11.15 25.03 25.03s-11.15 25.032-25.03 25.032zm154.624 0h-66.902c-13.88 0-25.03-11.15-25.03-25.032s11.15-25.03 25.03-25.03h66.902c13.88 0 25.03 11.15 25.03 25.03s-11.15 25.032-25.03 25.032zm154.624 0h-66.902c-13.88 0-25.03-11.15-25.03-25.032s11.15-25.03 25.03-25.03h66.902c13.88 0 25.03 11.15 25.03 25.03s-11.15 25.032-25.03 25.032zM390.372 683.292H323.47c-13.88 0-25.03-11.15-25.03-25.03s11.15-25.032 25.03-25.032h66.902c13.88 0 25.03 11.15 25.03 25.031s-11.15 25.031-25.03 25.031zm154.624 0h-66.902c-13.88 0-25.03-11.15-25.03-25.03s11.15-25.032 25.03-25.032h66.902c13.88 0 25.03 11.15 25.03 25.031s-11.15 25.031-25.03 25.031zm154.624 0h-66.902c-13.88 0-25.03-11.15-25.03-25.03s11.15-25.032 25.03-25.032h66.902c13.88 0 25.03 11.15 25.03 25.031s-11.15 25.031-25.03 25.031zM387.868 343.438a24.959 24.959 0 01-25.03-25.03v-91.023c0-13.881 11.15-25.031 25.03-25.031s25.032 11.15 25.032 25.03v91.023a24.959 24.959 0 01-25.032 25.031zm247.467 0a24.959 24.959 0 01-25.031-25.03v-91.023c0-13.881 11.15-25.031 25.031-25.031s25.031 11.15 25.031 25.03v91.023c0 13.881-11.264 25.031-25.03 25.031z"/></svg>