<svg viewBox="0 0 1024 1024" width="200" height="200"><path d="M1022.065 583.401c0 11.056-4.034 20.62-12.111 28.697-8.078 8.078-17.64 12.118-28.69 12.118H838.445c0 72.69-14.235 134.32-42.718 184.899l132.615 133.263c8.077 8.066 12.118 17.635 12.118 28.69 0 11.051-4.035 20.615-12.118 28.692-7.653 8.066-17.21 12.107-28.69 12.107-11.476 0-21.04-4.041-28.691-12.107L744.718 874.153c-2.125 2.118-5.31 4.884-9.559 8.284-4.259 3.398-13.18 9.463-26.785 18.172-13.599 8.715-27.415 16.473-41.44 23.276-14.03 6.798-31.462 12.966-52.29 18.493-20.827 5.518-41.447 8.286-61.842 8.286V379.387H471.19v571.277c-21.668 0-43.25-2.875-64.708-8.615-21.473-5.735-39.96-12.75-55.476-21.04-15.519-8.29-29.542-16.572-42.078-24.867-12.541-8.29-21.78-15.193-27.74-20.715l-9.558-8.932L154.95 998.48c-8.5 8.921-18.7 13.387-30.606 13.387-10.2 0-19.335-3.405-27.409-10.203-8.079-7.652-12.437-17.11-13.08-28.372-.634-11.263 2.659-21.143 9.893-29.647l128.787-144.727c-24.65-48.465-36.98-106.7-36.98-174.71H42.739c-11.058 0-20.617-4.041-28.69-12.112-8.08-8.082-12.12-17.641-12.12-28.697 0-11.05 4.04-20.62 12.12-28.69 8.073-8.072 17.632-12.107 28.69-12.107h142.815V355.157L75.25 244.855c-8.075-8.078-12.114-17.641-12.114-28.692 0-11.05 4.045-20.62 12.114-28.69 8.072-8.077 17.64-12.123 28.692-12.123 11.057 0 20.612 4.052 28.692 12.123l110.302 110.302h538.129l110.303-110.302c8.07-8.077 17.632-12.123 28.69-12.123 11.05 0 20.618 4.052 28.69 12.123 8.078 8.07 12.119 17.64 12.119 28.69s-4.041 20.615-12.12 28.692l-110.3 110.302v187.448h142.816c11.056 0 20.619 4.035 28.69 12.114 8.078 8.07 12.119 17.639 12.119 28.683h-.006zM716.021 216.158H307.97c0-56.526 19.871-104.668 59.616-144.414 39.734-39.746 87.883-59.612 144.411-59.612 56.53 0 104.679 19.866 144.413 59.612 39.748 39.745 59.612 87.888 59.612 144.414z"/></svg>