<svg viewBox="0 0 1024 1024" width="200" height="200"><path d="M530 484c17.673 0 32 14.327 32 32v281.738l55.581-54.572.38-.368c12.635-12.009 32.615-11.702 44.873.783 12.382 12.611 12.196 32.871-.415 45.253L558.024 891.331l-.47.454c-15.588 14.821-40.174 14.67-55.578-.454L397.581 788.834l-.374-.374c-12.24-12.412-12.299-32.394-.041-44.879l.374-.374c12.412-12.24 32.394-12.299 44.879-.041L498 797.738V516c0-17.673 14.327-32 32-32zm-17.503-362c127.168 0 237.994 89.208 270.943 216.027l.287 1.103 1.139.02 2.893.074C883.037 342.46 959 423.94 959 523.588c0 101.815-79.236 184.467-177.143 184.467-17.721 0-32.097-14.54-32.097-32.48 0-17.942 14.374-32.479 32.097-32.479l1.866-.016c61.445-1.054 111.073-54.093 111.073-119.492 0-66.055-50.635-119.497-112.939-119.497-6.214 0-12.36.526-18.42 1.574l-.53.087c-17.479 2.73-33.903-9.393-36.604-27.157l-.526-3.296c-18.088-108.49-108.03-188.328-213.28-188.328-77.62 0-148.795 43.483-187.555 113.993l-.216.39a32.006 32.006 0 01-30 16.236l-1.455-.09c-2.91-.169-5.807-.25-8.694-.246-85.189 0-154.378 72.873-154.378 162.913 0 90.036 69.195 162.93 154.38 162.93l.531.004c17.483.286 31.57 14.71 31.57 32.475 0 17.94-14.375 32.48-32.1 32.48C163.78 708.055 66 605.97 66 480.165c0-123.318 94.107-224.261 212.175-227.796l.789-.023.427-.664 1.572-2.417C333.178 169.841 419.397 122 512.497 122z"/></svg>