<svg t="1629125392497" class="icon" viewBox="0 0 1024 1024" version="1.1" xmlns="http://www.w3.org/2000/svg" p-id="4068" width="200" height="200"><path d="M834.446 213.447h-640.341c-50.176 0-91.022 40.846-91.022 91.022v423.026c0 50.176 40.846 91.022 91.022 91.022h640.341c50.176 0 91.022-40.846 91.022-91.022v-423.026c0-50.176-40.846-91.022-91.022-91.022zM870.855 727.495c0 20.025-16.384 36.409-36.409 36.409h-640.341c-20.025 0-36.409-16.384-36.409-36.409v-423.026c0-20.025 16.384-36.409 36.409-36.409h640.341c20.025 0 36.409 16.384 36.409 36.409v423.026z" fill="" p-id="4069"></path><path d="M786.773 358.059l-272.498 171.918-272.498-171.918c-12.743-8.078-29.582-4.21-37.661 8.533-8.078 12.743-4.21 29.582 8.533 37.661l286.72 180.907c4.551 2.845 9.557 4.21 14.563 4.21h0.91c5.006 0 10.013-1.365 14.563-4.21l286.72-180.907c12.743-8.078 16.611-24.917 8.533-37.661-8.306-12.857-25.145-16.611-37.888-8.533z" fill="" p-id="4070"></path></svg>
