<svg viewBox="0 0 1024 1024" width="200" height="200"><path d="M928.842 512.091c0-5.006-.846-9.193-1.087-9.692-.182-2.48-1.028-7.001-1.815-9.374-.21-.59-.484-1.21-.724-1.8-.425-1.361-.877-2.691-1.391-3.75-76.872-168.137-242.376-281.144-411.783-281.144-169.375 0-334.865 112.903-411.388 280.13-.922 1.816-1.573 3.554-1.981 5.067-.181.498-.393.967-.559 1.406-1.512 4.43-1.542 7.514-1.421 6.713-.71 3.25-1.361 9.722-1.361 9.722-.181 1.95-.181 3.507.03 5.443 0 0 .65 5.655.968 6.803.09 1.602.483 3.932.952 6.049h-.03a27.825 27.825 0 001.738 5.291c.394 1.33.863 2.57 1.271 3.508 76.976 168.166 242.437 281.204 411.781 281.204 169.437 0 334.942-112.946 410.937-279.33a30.065 30.065 0 002.448-6.017c.242-.544.455-1.028.605-1.512 1.332-3.872 1.603-7.227 1.482-7.227l-.029.03c.543-2.69 1.357-6.711 1.357-11.52zm-56.124 2.056c-.03.122-.091.272-.151.394-.09.362-.24.786-.333 1.21-68.404 147.42-212.83 246.337-360.192 246.337-146.997 0-291.168-98.643-360.252-246.58-.167-.513-.288-.998-.47-1.48-.03-.485-.12-.878-.15-1.151-.06-.3-.12-.725-.166-1.089v-.377c.166-.62.286-1.24.348-1.92.12-.362.211-.71.348-1.103 68.432-147.498 212.98-246.46 360.341-246.46 147.421 0 291.94 99.052 360.162 246.323.06.287.122.53.213.726.06.242.12.484.24.741.152 1.104.273 2.193.424 2.736-.18.574-.27 1.119-.362 1.693z"/><path d="M512.041 373.06c-76.598 0-138.954 62.326-138.954 138.94 0 76.599 62.356 138.955 138.954 138.955 76.599 0 138.955-62.356 138.955-138.955 0-76.614-62.356-138.94-138.955-138.94zm0 222.313c-45.935 0-83.371-37.407-83.371-83.372 0-45.95 37.436-83.356 83.371-83.356 45.965 0 83.374 37.407 83.374 83.356 0 45.965-37.409 83.372-83.374 83.372z"/></svg>