<svg viewBox="0 0 1024 1024" width="300" height="300"><path d="M894.88 499.52L827.84 432 577.12 683.36l6.56 60.48 60.8 6.24z" opacity=".15"/><path d="M142.24 312.96V848a53.76 53.76 0 0053.92 53.6h536.96a53.92 53.92 0 0053.92-53.6V705.76a19.04 19.04 0 1137.92 0V848a91.84 91.84 0 01-91.84 91.52H196.16A91.68 91.68 0 01104.32 848V293.92a18.88 18.88 0 018.32-16L291.68 91.2a18.56 18.56 0 0113.76-5.92h427.68a91.84 91.84 0 0191.84 91.52v177.12a19.04 19.04 0 11-37.92 0V176.8a53.92 53.92 0 00-53.92-53.6H331.84v170.72a19.04 19.04 0 01-18.88 19.04zM293.92 144l-125.6 131.36h125.6zm508.8 313.6l67.04 67.2 25.12-25.28L827.84 432l-25.12 25.6zm-26.88 26.88L577.12 683.36l6.56 60.48 60.8 6.24 198.4-198.56zm78.88-78.88l67.04 67.2a38.08 38.08 0 010 53.6L664.96 784a18.88 18.88 0 01-16 5.44L564 780.8a19.04 19.04 0 01-16.96-16l-9.28-84.96a18.72 18.72 0 015.44-16L801.12 405.6a38.08 38.08 0 0153.6 0zM464 350.88a19.04 19.04 0 110-37.92h132.64a19.04 19.04 0 110 37.92zm-208 123.2a19.04 19.04 0 110-37.92h341.28a19.04 19.04 0 110 37.92H256zm0 132.8a19.04 19.04 0 010-37.92h265.44a19.04 19.04 0 110 37.92z"/></svg>