<svg t="1629108241660" class="icon" viewBox="0 0 1024 1024" version="1.1" xmlns="http://www.w3.org/2000/svg" p-id="12280" width="200" height="200"><path d="M970.666667 204.8l-151.466667-151.466667L701.866667 170.666667H64c-12.8 0-21.333333 8.533333-21.333333 21.333333v768c0 12.8 8.533333 21.333333 21.333333 21.333333h576c6.4 0 10.666667-2.133333 14.933333-6.4l192-192c4.266667-4.266667 6.4-8.533333 6.4-14.933333V322.133333l117.333334-117.333333z m-529.066667 469.333333l-98.133333-85.333333L742.4 189.866667l91.733333 91.733333-392.533333 392.533333z m-123.733333-49.066666l89.6 76.8-121.6 34.133333 32-110.933333zM910.933333 204.8l-46.933333 46.933333-91.733333-91.733333 46.933333-46.933333 91.733333 91.733333zM661.333333 908.8V789.333333h119.466667L661.333333 908.8z m149.333334-162.133333h-170.666667c-12.8 0-21.333333 8.533333-21.333333 21.333333v170.666667H85.333333V213.333333h573.866667l-128 128H170.666667v42.666667h317.866666l-128 128H170.666667v42.666667h147.2l-32 32-61.866667 213.333333 213.333333-61.866667 183.466667-183.466666H725.333333v-42.666667h-61.866666l147.2-147.2V746.666667z" p-id="12281"></path></svg>
