<svg viewBox="0 0 1024 1024" width="200" height="200"><path d="M970.667 204.8L819.2 53.333 701.867 170.667H64c-12.8 0-21.333 8.533-21.333 21.333v768c0 12.8 8.533 21.333 21.333 21.333h576c6.4 0 10.667-2.133 14.933-6.4l192-192c4.267-4.266 6.4-8.533 6.4-14.933V322.133L970.667 204.8zM441.6 674.133L343.467 588.8 742.4 189.867l91.733 91.733L441.6 674.133zm-123.733-49.066l89.6 76.8L285.867 736l32-110.933zM910.933 204.8L864 251.733 772.267 160l46.933-46.933 91.733 91.733zm-249.6 704V789.333H780.8L661.333 908.8zm149.334-162.133H640c-12.8 0-21.333 8.533-21.333 21.333v170.667H85.333V213.333H659.2l-128 128H170.667V384h317.866l-128 128H170.667v42.667h147.2l-32 32L224 800l213.333-61.867L620.8 554.667h104.533V512h-61.866l147.2-147.2v381.867z"/></svg>
