<svg viewBox="0 0 1024 1024" width="200" height="200"><path d="M504.223 754.57c-53.62 0-97.11-43.9-97.11-97.827s43.592-97.825 97.11-97.825c53.62 0 97.11 43.898 97.11 97.825.102 53.928-43.49 97.826-97.11 97.826zm0-140.293c-23.126 0-41.852 19.033-41.852 42.569s18.828 42.568 41.852 42.568c23.126 0 41.852-19.033 41.852-42.568s-18.726-42.569-41.852-42.569z"/><path d="M784.296 424.253h-28.754v-54.54c0-68.868-25.89-133.948-73.063-183.066-47.378-49.425-110.31-76.746-177.028-76.746-66.82 0-129.65 27.219-177.028 76.746-47.071 49.118-73.063 114.198-73.063 183.065v54.541h-31.005c-30.699 0-55.564 24.866-55.564 55.565v359.786c0 30.699 24.865 55.565 55.564 55.565h560.043c30.699 0 55.564-24.866 55.564-55.565V479.92c-.102-30.698-24.968-55.667-55.666-55.667zm-473.78-54.54c0-54.644 20.465-106.013 57.713-144.795 36.838-38.476 85.648-59.658 137.222-59.658 51.573 0 100.282 21.182 137.222 59.658 37.146 38.782 57.714 90.253 57.714 144.794v54.541H310.515v-54.54zm474.087 469.994v.102c0 .102-.205.205-.205.205H224.15c-.102 0-.204-.205-.204-.205V479.818c0-.103.204-.205.204-.205h560.248c.102 0 .205.205.205.205v359.889z"/></svg>