<svg viewBox="0 0 1024 1024" width="200" height="200"><path d="M769.458 32.54H278.18c-34.076 0-61.704 27.63-61.704 61.704v803.79c0 34.075 27.628 61.704 61.704 61.704h491.278c34.076 0 61.704-27.629 61.704-61.704V94.244c0-34.075-27.628-61.704-61.704-61.704zM278.18 87.798h491.278a6.42 6.42 0 016.447 6.446v545.513H271.733V94.244a6.42 6.42 0 016.447-6.446zM769.458 904.48H278.18a6.42 6.42 0 01-6.447-6.446v-203.02h504.172v203.02c0 3.479-2.865 6.446-6.447 6.446z"/><path d="M464.622 797.547a59 59 0 10120.747 0 59 59 0 10-120.747 0z"/></svg>