<svg viewBox="0 0 1271 1024" width="200" height="200"><path d="M871.971 850.891a425.967 425.967 0 01-254.115 79.82c-11.94-.156-23.736-1.085-35.518-2.013-4.813-.457-9.455-1.228-14.282-2-9.312-1.228-18.466-2.313-27.464-4.284-5.584-.928-11.168-2.613-16.453-3.856-8.84-2-17.68-4.013-26.22-6.627-4.043-1.542-7.913-2.856-12.112-4.613-10.083-3.242-19.994-6.784-29.477-10.782-2.171-.929-4.285-1.857-6.356-2.614-11.168-5.241-22.35-10.626-33.047-16.338-.457-.314-.929-.457-1.429-.772a435.593 435.593 0 01-98.815-75.493c-.457-.471-.928-1.085-1.428-1.542-8.998-9.24-17.68-18.795-25.907-29.12a343.72 343.72 0 01-5.127-6.627 445.761 445.761 0 01-94.945-275.48h105.356L167.253 236.462 0 491.749h104.357a536.065 536.065 0 0092.574 301.444 22.565 22.565 0 001.985 3.656c5.97 8.869 12.853 16.895 19.166 25.05 2.556 2.957 4.684 6.041 7.24 9.426 9.37 11.54 19.738 22.651 29.992 33.49 1.143 1.13 1.986 1.972 2.857 2.957a522.611 522.611 0 00117.438 89.79c1.129.713 2.128 1.128 3.4 1.97 12.353 6.756 25.135 13.097 37.903 18.724 3.27 1.428 6.398 2.956 9.512 4.284 11.082 4.785 22.436 8.726 33.805 12.854 5.398 1.97 10.654 3.656 16.18 5.484 9.998 2.956 20.167 5.484 30.535 7.883 6.813 1.686 13.482 3.37 20.437 4.785a60.397 60.397 0 008.37 1.97c9.797 1.829 19.451 2.671 29.106 3.942 3.556.714 7.14 1.271 10.511 1.686 17.467 1.685 34.79 2.856 52.257 2.856 106.056 0 234.363-33.933 313.727-108.841 23.722-22.522 19.109-53.37 8.826-64.71-14.04-15.71-47.13-21.752-78.164.6zm294.304-318.768a533.951 533.951 0 00-91.86-300.588c-.857-1.428-1.429-2.956-2.128-4.284-7.527-10.554-15.196-20.266-23.008-30.249a33.59 33.59 0 01-2.557-3.656A524.74 524.74 0 00851.634 44.173c-2.271-.842-4.113-1.97-6.398-2.856-12.068-5.07-24.422-9.44-36.919-13.796-4.284-1.428-8.812-3.1-13.21-4.513-10.94-3.37-21.723-6.041-32.848-8.726-6.113-1.428-12.354-2.957-18.452-4.285-2.985-.571-5.827-1.428-8.955-2.113-8.226-1.429-16.324-2.114-24.707-3.242-5.827-.715-11.426-1.543-17.038-2.114C679.197 1.1 665.429.557 651.69.414c-2.557 0-4.97-.414-7.527-.414-.428 0-.857.143-1.285.143a511.8 511.8 0 00-298.174 96.116c-29.478 20.98-25.522 50.586-12.34 65.524 9.37 10.612 37.961 25.593 61.14 7.913 73.28-55.5 162.27-80.578 251.787-79.807 12.854.157 25.707.771 38.161 2 3.885.314 7.598.928 11.426 1.542a303.715 303.715 0 0130.72 4.927c4.284.771 8.854 2 13.039 2.857 10.083 2.313 19.709 4.627 29.32 7.697a68.938 68.938 0 018.998 3.228c11.168 3.7 22.036 7.555 32.576 12.168 1.243.314 2.171 1.228 3.257 1.543a435.75 435.75 0 01163.668 125.108 9.569 9.569 0 00.629.928 446.433 446.433 0 0198.543 280.407h-105.47l133.648 255 166.968-255.157zm0 0"/></svg>