<svg viewBox="0 0 1024 1024" width="200" height="200"><path d="M675.84 198.042a348.16 348.16 0 100 491.52 348.16 348.16 0 000-491.52zm-28.877 463.257a307.2 307.2 0 110-434.38 307.2 307.2 0 010 434.38z"/><path d="M675.84 661.3a20.48 20.48 0 0128.877 0L936.55 893.132A20.48 20.48 0 11907.47 921.6L675.84 690.38a20.48 20.48 0 010-29.08zM574.464 299.417zm0 289.587v-.205.205zM266.24 435.61h-40.96a206.643 206.643 0 005.94 59.392l39.526-10.65a165.274 165.274 0 01-4.506-48.742zm18.637-136.192a202.342 202.342 0 00-53.658 95.436h42.599a162.202 162.202 0 01193.33-109.568l10.65-39.526a204.8 204.8 0 00-192.921 53.658z"/></svg>