<svg viewBox="0 0 1024 1024" width="200" height="200"><path d="M107.336 296.664V702h833.328V296.664H107.336zm812 384.008H128.664V318h790.672v362.672z"/><path d="M330.656 584.328c-9.944 8.456-19.512 14.424-28.712 17.896-9.2 3.48-19.072 5.216-29.608 5.216-17.4 0-30.776-4.248-40.12-12.752-9.344-8.504-14.024-19.368-14.024-32.584 0-7.76 1.768-14.84 5.296-21.256a43.864 43.864 0 0113.872-15.44 65.464 65.464 0 0119.312-8.8c5.272-1.392 13.224-2.736 23.864-4.032 21.672-2.576 37.64-5.664 47.88-9.24.096-3.68.152-6.016.152-7.016 0-10.928-2.536-18.64-7.608-23.12-6.864-6.064-17.056-9.096-30.576-9.096-12.624 0-21.952 2.208-27.968 6.632-6.016 4.432-10.464 12.256-13.344 23.496l-26.248-3.576c2.384-11.232 6.312-20.304 11.784-27.216s13.376-12.232 23.712-15.96 22.328-5.592 35.944-5.592c13.52 0 24.512 1.592 32.96 4.776 8.456 3.184 14.664 7.184 18.648 12.008s6.76 10.912 8.352 18.272c.896 4.568 1.344 12.824 1.344 24.76v35.8c0 24.952.568 40.744 1.712 47.352 1.144 6.608 3.408 12.952 6.784 19.016h-28.04c-2.784-5.576-4.576-12.08-5.368-19.544zm-2.24-59.952c-9.744 3.976-24.36 7.36-43.848 10.144-11.032 1.584-18.84 3.384-23.416 5.368-4.576 1.992-8.104 4.896-10.592 8.728a22.92 22.92 0 00-3.728 12.752c0 7.16 2.712 13.128 8.128 17.896s13.352 7.16 23.792 7.16c10.336 0 19.536-2.256 27.592-6.784s13.968-10.72 17.752-18.568c2.88-6.064 4.328-15.016 4.328-26.84v-9.856zm93.52 79.488h-24.912V385.216h26.848v78c11.336-14.216 25.808-21.328 43.4-21.328a66.56 66.56 0 0127.664 5.888c8.696 3.928 15.856 9.456 21.48 16.552 5.608 7.12 10.016 15.688 13.192 25.736a106.24 106.24 0 014.776 32.208c0 27.152-6.712 48.128-20.136 62.944-13.424 14.816-29.528 22.216-48.328 22.216-18.688 0-33.36-7.808-44-23.416v19.848zm-.304-80.384c0 18.992 2.584 32.712 7.76 41.168 8.448 13.824 19.888 20.736 34.304 20.736 11.728 0 21.872-5.096 30.424-15.288s12.824-25.384 12.824-45.56c0-20.68-4.104-35.944-12.304-45.792s-18.12-14.768-29.752-14.768c-11.736 0-21.872 5.096-30.424 15.288-8.552 10.184-12.832 24.92-12.832 44.216zm248.784 22.368l26.4 3.432c-2.888 18.192-10.264 32.44-22.152 42.728-11.88 10.296-26.48 15.44-43.776 15.44-21.68 0-39.112-7.088-52.28-21.248-13.168-14.168-19.76-34.48-19.76-60.928 0-17.104 2.832-32.064 8.504-44.888s14.288-22.448 25.872-28.856 24.184-9.624 37.816-9.624c17.192 0 31.272 4.352 42.208 13.056s17.936 21.056 21.032 37.064l-26.112 4.024c-2.488-10.632-6.88-18.64-13.192-24.008-6.32-5.376-13.944-8.056-22.896-8.056-13.512 0-24.504 4.84-32.952 14.536-8.456 9.696-12.688 25.032-12.688 46.016 0 21.272 4.08 36.744 12.232 46.384 8.16 9.648 18.8 14.472 31.92 14.472 10.528 0 19.328-3.232 26.392-9.696s11.536-16.424 13.432-29.848zM768 354h16.664v262H768z"/></svg>