<svg viewBox="0 0 1024 1024" width="200" height="200"><path d="M723.158 247.462H301.14c-156.17 0-286.047 119.314-286.047 264.553 0 144.974 129.876 264.553 286.047 264.553h422.017c156.43 0 285.736-119.578 285.736-264.553 0-145.239-129.023-264.553-285.736-264.553zm0 485.097H301.14c-130.418 0-238.725-99.916-238.725-220.544 0-121.132 107.74-220.545 238.725-220.545h422.017c130.702 0 238.466 99.413 238.466 220.545 0 120.628-108.332 220.544-238.466 220.544zm0-405.371c-109.985 0-199.798 83.358-199.798 184.827s89.818 184.3 199.798 184.3c109.443 0 199.819-82.833 199.819-184.3 0-101.732-90.38-184.827-199.82-184.827zm0 296.4c-66.616 0-120.886-49.958-120.886-111.573 0-61.856 54.27-111.838 120.886-111.838s120.37 49.982 120.37 111.838c0 61.615-53.753 111.573-120.37 111.573z"/></svg>