<svg viewBox="0 0 1024 1024" width="200" height="200"><path d="M814.08 118.528H191.488a76.8 76.8 0 00-76.8 76.8V819.2a76.8 76.8 0 0076.8 76.8H814.08a76.8 76.8 0 0076.8-76.8V195.328a76.8 76.8 0 00-76.8-76.8zm25.6 700.672a25.6 25.6 0 01-25.6 25.6H191.488a25.6 25.6 0 01-25.6-25.6V195.328a25.6 25.6 0 0125.6-25.6H814.08a25.6 25.6 0 0125.6 25.6z"/><path d="M742.4 667.904H262.144a25.6 25.6 0 100 51.2H742.4a25.6 25.6 0 000-51.2zm0-117.504H526.848a25.6 25.6 0 000 51.2H742.4a25.6 25.6 0 000-51.2zm0-117.76h-97.792a25.6 25.6 0 000 51.2H742.4a25.6 25.6 0 000-51.2zm0-117.504h-97.792a25.6 25.6 0 000 51.2H742.4a25.6 25.6 0 000-51.2zm-476.928 77.312a25.6 25.6 0 0025.6-25.6H358.4V550.4h-20.224a25.6 25.6 0 000 51.2h91.648a25.6 25.6 0 000-51.2H409.6V366.336h66.048a25.6 25.6 0 0051.2 0v-25.6a25.6 25.6 0 00-25.6-25.6H265.472a25.6 25.6 0 00-25.6 25.6v25.6a25.6 25.6 0 0025.6 26.112z"/></svg>