<svg viewBox="0 0 1024 1024" width="200" height="200"><path d="M358.4 763.733c-8.533-4.266-21.333-4.266-29.867 8.534-4.266 8.533-4.266 21.333 8.534 29.866 8.533 4.267 21.333 4.267 29.866-8.533 8.534-8.533 4.267-21.333-8.533-29.867zm294.4-503.466c8.533 4.266 21.333 4.266 29.867-8.534 4.266-8.533 4.266-21.333-8.534-29.866-8.533-4.267-21.333-4.267-29.866 8.533C640 243.2 640 251.733 652.8 260.267zM192 490.667c-12.8 0-21.333 8.533-21.333 21.333 0 12.8 8.533 21.333 21.333 21.333S213.333 524.8 213.333 512c0-12.8-8.533-21.333-21.333-21.333zm149.333-268.8c-12.8 8.533-17.066 21.333-8.533 29.866 4.267 8.534 17.067 12.8 29.867 8.534C371.2 256 375.467 243.2 371.2 230.4c-8.533-8.533-21.333-12.8-29.867-8.533zm-115.2 426.666c-12.8 8.534-12.8 21.334-8.533 29.867 4.267 8.533 17.067 12.8 29.867 8.533 8.533-4.266 12.8-17.066 8.533-29.866-8.533-8.534-21.333-12.8-29.867-8.534zm21.334-311.466c-12.8-4.267-25.6 0-29.867 8.533-4.267 8.533-4.267 21.333 8.533 29.867 8.534 4.266 21.334 4.266 29.867-8.534 4.267-8.533 0-21.333-8.533-29.866zM652.8 763.733C644.267 768 640 780.8 644.267 793.6c4.266 8.533 17.066 12.8 29.866 8.533 8.534-4.266 12.8-17.066 8.534-29.866-8.534-8.534-21.334-12.8-29.867-8.534zM768 337.067c-8.533 4.266-12.8 17.066-8.533 29.866 4.266 8.534 17.066 12.8 29.866 8.534 8.534-4.267 12.8-17.067 8.534-29.867-8.534-8.533-21.334-12.8-29.867-8.533zm51.2 153.6c-12.8 0-21.333 8.533-21.333 21.333 0 12.8 8.533 21.333 21.333 21.333S840.533 524.8 840.533 512c0-12.8-8.533-21.333-21.333-21.333zm-311.467-435.2c-256 0-460.8 204.8-460.8 456.533s204.8 456.533 456.534 456.533 460.8-204.8 460.8-456.533-204.8-456.533-456.534-456.533zm0 874.666C277.333 930.133 89.6 742.4 89.6 512S277.333 93.867 507.733 93.867 925.867 281.6 925.867 512 738.133 930.133 507.733 930.133zm187.734-439.466H588.8c-8.533-29.867-29.867-51.2-59.733-59.734v-230.4c0-12.8-8.534-21.333-21.334-21.333s-21.333 8.533-21.333 21.333v230.4c-34.133 8.534-64 42.667-64 81.067 0 46.933 38.4 85.333 85.333 85.333 38.4 0 72.534-25.6 81.067-64h106.667c12.8 0 21.333-8.533 21.333-21.333-4.267-12.8-12.8-21.333-21.333-21.333zm-187.734 64c-21.333 0-42.666-17.067-42.666-42.667 0-21.333 17.066-42.667 42.666-42.667S550.4 486.4 550.4 512c-4.267 21.333-21.333 42.667-42.667 42.667zm0 247.466c-12.8 0-21.333 8.534-21.333 21.334 0 12.8 8.533 21.333 21.333 21.333s21.334-8.533 21.334-21.333c0-8.534-12.8-21.334-21.334-21.334zm277.334-153.6c-8.534-4.266-21.334-4.266-29.867 8.534-4.267 8.533-4.267 21.333 8.533 29.866 8.534 4.267 21.334 4.267 29.867-8.533 8.533-8.533 4.267-21.333-8.533-29.867z"/></svg>