<svg t="1629174315470" class="icon" viewBox="0 0 1024 1024" version="1.1" xmlns="http://www.w3.org/2000/svg" p-id="27129" width="200" height="200"><path d="M943.709091 399.127273a33.28 33.28 0 0 1 23.272727-40.494546 33.28 33.28 0 0 1 40.494546 23.272728 33.28 33.28 0 0 1-23.272728 40.494545 33.047273 33.047273 0 0 1-8.378181 0 33.28 33.28 0 0 1-32.116364-23.272727z m-44.916364-108.916364a32.814545 32.814545 0 0 1 11.869091-44.916364 32.814545 32.814545 0 0 1 45.149091 12.101819 33.047273 33.047273 0 0 1-11.869091 45.149091 36.770909 36.770909 0 0 1-16.756363 4.421818 32.814545 32.814545 0 0 1-28.392728-16.756364z m-71.912727-93.090909a33.512727 33.512727 0 0 1 0-46.545455 33.745455 33.745455 0 0 1 46.545455 0 33.512727 33.512727 0 0 1 0 46.545455 33.047273 33.047273 0 0 1-23.272728 9.774545 32.814545 32.814545 0 0 1-23.272727-9.774545z m-93.090909-71.912727A33.047273 33.047273 0 0 1 721.454545 80.058182a32.814545 32.814545 0 0 1 45.149091-11.869091 32.814545 32.814545 0 0 1 11.869091 44.916364 32.814545 32.814545 0 0 1-28.392727 16.523636 33.978182 33.978182 0 0 1-16.756364-4.421818z m-109.149091-44.916364a33.047273 33.047273 0 0 1-23.272727-40.494545 32.814545 32.814545 0 0 1 40.494545-23.272728 33.047273 33.047273 0 0 1 23.272727 40.494546 32.814545 32.814545 0 0 1-31.883636 24.436363 36.072727 36.072727 0 0 1-8.610909-1.163636zM1024 512a21.178182 21.178182 0 0 0 0-5.352727 46.545455 46.545455 0 0 0-1.396364-5.352728 43.287273 43.287273 0 0 0-2.327272-4.654545 48.64 48.64 0 0 0-3.258182-3.956364 27.694545 27.694545 0 0 0-19.781818-8.145454 26.763636 26.763636 0 0 0-18.618182 7.447273 35.607273 35.607273 0 0 0-2.56 3.723636 26.530909 26.530909 0 0 0-5.585455 15.825454A456.843636 456.843636 0 1 1 512 55.156364a28.625455 28.625455 0 0 0 8.843636-1.861819h1.629091c1.629091 0 2.56-1.861818 3.956364-2.56a37.003636 37.003636 0 0 0 4.887273-4.18909 31.883636 31.883636 0 0 0 3.956363-3.723637 34.909091 34.909091 0 0 0 2.094546-4.189091 17.221818 17.221818 0 0 0 1.629091-4.887272 41.658182 41.658182 0 0 0 0-5.585455 46.545455 46.545455 0 0 0 0-5.352727 21.876364 21.876364 0 0 0-1.629091-5.12L535.272727 12.334545a30.021818 30.021818 0 0 0-3.490909-3.956363 28.858182 28.858182 0 0 0-4.654545-3.723637 18.618182 18.618182 0 0 0-3.723637-1.861818h-1.396363a15.36 15.36 0 0 0-4.654546-1.396363h-2.56L512 0a512 512 0 1 0 512 512z m-242.501818 127.767273L517.818182 516.654545V225.745455a29.090909 29.090909 0 0 0-58.181818 0V535.272727a36.072727 36.072727 0 0 0 0 4.887273 46.545455 46.545455 0 0 0 1.163636 5.585455 20.48 20.48 0 0 0 3.258182 5.352727 43.752727 43.752727 0 0 0 2.792727 4.189091 34.909091 34.909091 0 0 0 5.585455 4.189091 23.272727 23.272727 0 0 0 3.025454 2.094545l279.272727 130.327273a29.090909 29.090909 0 1 0 24.669091-52.596364z" p-id="27130"></path></svg>
