<svg viewBox="0 0 1024 1024" width="200" height="200"><path d="M943.71 399.127a33.28 33.28 0 0123.272-40.494 33.28 33.28 0 0140.494 23.272 33.28 33.28 0 01-23.272 40.495 33.047 33.047 0 01-8.379 0 33.28 33.28 0 01-32.116-23.273zm-44.917-108.916a32.815 32.815 0 0111.869-44.916 32.815 32.815 0 0145.149 12.101 33.047 33.047 0 01-11.87 45.15 36.77 36.77 0 01-16.756 4.421 32.815 32.815 0 01-28.392-16.756zM826.88 197.12a33.513 33.513 0 010-46.545 33.745 33.745 0 0146.545 0 33.513 33.513 0 010 46.545 33.047 33.047 0 01-23.272 9.775 32.815 32.815 0 01-23.273-9.775zm-93.09-71.913a33.047 33.047 0 01-12.335-45.149 32.815 32.815 0 0145.149-11.869 32.815 32.815 0 0111.869 44.916 32.815 32.815 0 01-28.393 16.524 33.978 33.978 0 01-16.756-4.422zM624.64 80.291a33.047 33.047 0 01-23.273-40.495 32.815 32.815 0 0140.495-23.272 33.047 33.047 0 0123.273 40.494 32.815 32.815 0 01-31.884 24.437 36.073 36.073 0 01-8.611-1.164zM1024 512a21.178 21.178 0 000-5.353 46.545 46.545 0 00-1.396-5.352 43.287 43.287 0 00-2.328-4.655 48.64 48.64 0 00-3.258-3.956 27.695 27.695 0 00-19.782-8.146 26.764 26.764 0 00-18.618 7.447 35.607 35.607 0 00-2.56 3.724 26.53 26.53 0 00-5.585 15.826A456.844 456.844 0 11512 55.156a28.625 28.625 0 008.844-1.861h1.629c1.629 0 2.56-1.862 3.956-2.56a37.004 37.004 0 004.887-4.19 31.884 31.884 0 003.957-3.723 34.91 34.91 0 002.094-4.19 17.222 17.222 0 001.63-4.887 41.658 41.658 0 000-5.585 46.545 46.545 0 000-5.353 21.876 21.876 0 00-1.63-5.12l-2.094-5.352a30.022 30.022 0 00-3.491-3.957 28.858 28.858 0 00-4.655-3.723 18.618 18.618 0 00-3.723-1.862h-1.397a15.36 15.36 0 00-4.654-1.397h-2.56L512 0a512 512 0 10512 512zM781.498 639.767l-263.68-123.112v-290.91a29.09 29.09 0 00-58.182 0v309.528a36.073 36.073 0 000 4.887 46.545 46.545 0 001.164 5.585 20.48 20.48 0 003.258 5.353 43.753 43.753 0 002.793 4.19 34.91 34.91 0 005.585 4.188 23.273 23.273 0 003.026 2.095l279.273 130.327a29.09 29.09 0 1024.669-52.596z"/></svg>