<svg viewBox="0 0 1024 1024" width="200" height="200"><path d="M479.72 599.2v33.568H298.936V475.224h180.568v-27.936H298.936V324.464H271v525.24h27.936v-.216H479.72v33.56h1.112v-95.064h-1.112v33.56H298.936v-160.84H479.72v33.56h1.112V599.2z"/><path d="M472.256 392v42.152h-.224v35.088h.224v42.152h380.248V392H472.256zm352.192 82.04H500.28v-15.776h-.184v-13.128h.184v-15.784h324.168v44.688zM472.256 586.672v42.152h-.224v35.088h.224v42.16h380.248v-119.4H472.256zm352.192 82.032H500.28v-15.776h-.184v-13.136h.184v-15.784h324.168v44.696zM472.256 772.008v42.152h-.224v35.088h.224v42.16h380.248v-119.4H472.256zm352.192 82.032H500.28v-15.776h-.184v-13.136h.184v-15.784h324.168v44.696zM120.792 169.336v162.168h360.04V169.336h-360.04zM436.992 302H162.96V196.072h274.032V302z"/></svg>