<svg viewBox="0 0 1024 1024" width="200" height="200"><path d="M795.695 395.636a289.047 289.047 0 00-567.39 0 197.585 197.585 0 0018.386 395.637h30.953a23.273 23.273 0 000-46.546H246.69a151.273 151.273 0 11-2.327-302.545l23.272 5.353 3.026-25.6a242.27 242.27 0 01480.814 0l4.655 25.134 23.273-4.887a151.273 151.273 0 11-2.328 302.545h-34.909a23.273 23.273 0 000 46.546h35.142a197.585 197.585 0 0018.386-395.637z"/><path d="M528.524 480.35a23.273 23.273 0 00-33.048 0l-131.49 131.49a23.273 23.273 0 000 33.047 23.273 23.273 0 0032.814 0l91.927-91.927v284.858a23.273 23.273 0 0046.546 0V552.96l93.09 91.927a23.273 23.273 0 0016.524 6.75 23.273 23.273 0 0016.291-39.797z"/></svg>