<svg t="1629274814224" class="icon" viewBox="0 0 1024 1024" version="1.1" xmlns="http://www.w3.org/2000/svg" p-id="3403" width="200" height="200"><path d="M332.976552 790.49269c30.260966-56.002207 45.903448-129.447724 46.786207-219.418483V419.133793h278.174896v320.406069c0 11.934897-6.426483 18.361379-19.279448 18.361379-17.902345 0-37.181793-0.459034-57.838345-1.377103l8.721655 31.214345h59.215449c27.542069 0 41.772138-12.393931 41.772137-36.722759v-362.637241H346.747586v185.449931c-0.918069 78.494897-13.771034 143.218759-38.558896 194.171586l24.787862 22.49269z m298.372414-217.123311v-28.919172h-97.809656v-45.444414h82.626207v-27.542069h-82.626207v-38.099862h-32.132413v38.099862h-83.544276v27.542069H501.406897v45.444414h-97.315311v28.919172h227.222069z m-22.951725 149.186207v-114.299586h-185.485241v114.299586h185.449931z m-31.708689-28.919172h-121.644138v-57.379311h121.644138v57.379311z" p-id="3404"></path><path d="M917.645241 144.772414a70.62069 70.62069 0 0 1 70.62069 70.620689v681.489656a70.62069 70.62069 0 0 1-70.62069 70.620689H94.384552a70.62069 70.62069 0 0 1-70.62069-70.620689V215.393103a70.62069 70.62069 0 0 1 70.62069-70.620689h823.260689z m0 45.903448H94.384552a24.717241 24.717241 0 0 0-24.50538 21.362759l-0.211862 3.354482v681.489656a24.717241 24.717241 0 0 0 21.362759 24.505379l3.354483 0.211862h823.260689a24.717241 24.717241 0 0 0 24.50538-21.362759l0.211862-3.354482V215.393103a24.717241 24.717241 0 0 0-21.362759-24.505379l-3.354483-0.211862z" p-id="3405"></path><path d="M312.214069 31.249655a22.951724 22.951724 0 0 1 22.704552 19.561931l0.247172 3.389793v180.824276a22.951724 22.951724 0 0 1-45.656276 3.389793l-0.247172-3.389793v-180.788965a22.951724 22.951724 0 0 1 22.951724-22.951724zM691.023448 31.249655a22.951724 22.951724 0 0 1 22.704552 19.561931l0.247172 3.389793v180.824276a22.951724 22.951724 0 0 1-45.656275 3.389793l-0.247173-3.389793v-180.788965a22.951724 22.951724 0 0 1 22.951724-22.951724z" p-id="3406"></path></svg>
